<?xml version="1.0" encoding="UTF-8"?><svg xmlns="http://www.w3.org/2000/svg" xmlns:xlink="http://www.w3.org/1999/xlink" viewBox="0 0 74 75"><defs><style>.h{fill:#a79055;}.i{fill:#735026;}.j{fill:none;}.k{fill:#eeeccd;}.l{clip-path:url(#g);}</style><clipPath id="g"><circle class="j" cx="36.48" cy="38.48" r="33.53"/></clipPath></defs><g id="a"/><g id="b"/><g id="c"/><g id="d"/><g id="e"/><g id="f"><g><g class="l"><circle class="h" cx="36.48" cy="38.48" r="33.53"/><polygon class="i" points="37.51 80.96 21.32 55.31 25.07 18.28 52.62 20.74 75.02 52.51 37.51 80.96"/></g><g><path class="k" d="M23.29,18.3c-.07-.01-.14-.02-.21-.02h-1.76c-.54,0-.98,.44-.98,.98V54.32c0,.54,.44,.98,.98,.98h1.76c.07,0,.14,0,.21-.02,.08,0,.15,.02,.23,.02h1.56V18.28h-1.56c-.08,0-.15,.02-.23,.02Z"/><path class="k" d="M50.16,18.28H26V55.31h24.16c1.35,0,2.46-1.11,2.46-2.46V20.74c0-1.35-1.11-2.46-2.46-2.46Zm-5.89,13.49h-3.43v9.94h-2.73v-9.94h-3.43v-2.73h3.43v-3.54h2.73v3.54h3.43v2.73Z"/><polygon class="k" points="26.21 61.27 28.76 59.97 31.3 61.27 31.3 56.18 26.21 56.18 26.21 61.27"/></g></g></g></svg>