<?xml version="1.0" encoding="UTF-8"?><svg xmlns="http://www.w3.org/2000/svg" xmlns:xlink="http://www.w3.org/1999/xlink" viewBox="0 0 73 74"><defs><style>.h{fill:#fff;}.i{fill:#a79055;}.j{fill:#735026;}.k{clip-path:url(#b);}.l,.m{fill:none;}.n{fill:#eeeccd;}.m{stroke:#000;stroke-linecap:round;stroke-linejoin:round;stroke-width:0px;}</style><clipPath id="b"><circle class="l" cx="36.47" cy="36.56" r="33.53"/></clipPath></defs><g id="a"><g><g class="k"><circle class="i" cx="36.47" cy="36.56" r="33.53"/><polygon class="j" points="43.48 79.76 12.75 51.31 44.81 49.89 46.4 43.78 50.37 43.68 51.37 26.06 61.37 19.53 86.13 48.65 43.48 79.76"/></g><g><path class="n" d="M53.22,43.56l-.63-14.12c4.95-.6,8.79-4.81,8.79-9.92h-20c0,5.11,3.84,9.32,8.79,9.92l-.63,14.12c-.46,.05-.91,.13-1.34,.21,2.01,1.51,3.31,3.2,3.77,4.88,5.08-.05,9.1-.79,9.1-1.68,0-.82-3.38-2.92-7.84-3.41Z"/><path class="n" d="M51.13,48.65c-.52-1.6-1.91-3.23-3.97-4.65-.46-.32-.93-.63-1.45-.92-.17,.5-.33,1-.48,1.51-.22,.74-.43,1.48-.61,2.23-.05,.2-.17,.37-.34,.47-.11,.07-.24,.11-.37,.11h0c-.06,0-.12,0-.18-.02-.36-.09-.6-.45-.55-.84,.05-.36,.12-.72,.18-1.08h0c.18-1.09,.39-2.18,.64-3.26-1.11-.51-2.32-.96-3.61-1.34-.43,1.61-.8,3.24-1.05,4.9-.03,.22-.15,.42-.33,.54-.12,.08-.25,.13-.39,.13h0s-.09,0-.14-.01c-.37-.08-.62-.44-.59-.84,.11-1.74,.34-3.48,.63-5.2-1.2-.27-2.45-.48-3.75-.61-.33,1.76-.6,3.53-.74,5.32-.02,.24-.13,.46-.3,.61-.12,.1-.27,.16-.43,.16h0s-.05,0-.08,0c-.37-.04-.65-.4-.65-.84,0-1.8,.13-3.59,.3-5.38-.47-.02-.93-.04-1.4-.04-.82,0-1.63,.04-2.42,.1-.19,1.75-.33,3.51-.36,5.28,0,.49-.33,.87-.73,.87h0c-.39,0-.7-.35-.72-.82-.09-1.71-.09-3.43-.05-5.14-.67,.09-1.33,.2-1.97,.33-.64,.13-1.27,.28-1.88,.44-.05,1.65-.05,3.3,.04,4.95,.03,.5-.25,.93-.64,.99-.03,0-.06,0-.09,0h0c-.14,0-.27-.05-.38-.13-.18-.14-.31-.38-.34-.65-.18-1.53-.3-3.08-.38-4.62-.69,.23-1.36,.49-2,.76-.64,.27-1.25,.57-1.82,.87,.08,1.45,.21,2.9,.39,4.34,.06,.51-.15,.97-.51,1.09-.07,.02-.13,.03-.2,.03h0c-.11,0-.21-.03-.3-.08-.21-.12-.36-.36-.41-.65-.24-1.25-.42-2.51-.6-3.77-2.82,1.87-4.52,4.12-4.52,6.21,0,.49,.43,.93,1.18,1.32,.25,.13,.54,.25,.86,.37,1.01,.38,2.36,.7,3.95,.97,.15,.02,.3,.05,.45,.07,11.26,1.76,33.37,.85,33.37-2.73,0-.44-.1-.89-.24-1.33h0Z"/><polygon class="h" points="43.85 46.64 43.85 46.64 43.85 46.64 43.85 46.64"/><polygon class="h" points="36.45 31.97 36.45 31.97 36.45 31.97 36.45 31.97 36.45 31.97 36.45 31.97"/><rect x="36.45" y="31.97" width="0" height="0" transform="translate(-10.36 44.57) rotate(-56.31)"/><path class="m" d="M17.55,52.65c.15,.02,.3,.05,.45,.07"/><path d="M23.37,45.59c-.09-1.65-.08-3.3-.04-4.95,.61-.16,1.24-.31,1.88-.44-.64,.13-1.27,.28-1.88,.44-.05,1.65-.05,3.3,.04,4.95,.03,.5-.25,.93-.64,.99-.03,0-.06,0-.09,0,.03,0,.06,0,.09,0,.39-.06,.66-.48,.64-.99Z"/><path class="m" d="M25.22,40.2c.64-.13,1.3-.24,1.97-.33"/><path d="M28.7,44.96c.03-1.77,.16-3.53,.36-5.28,.8-.06,1.6-.1,2.42-.1h0c-.82,0-1.63,.04-2.42,.1-.19,1.75-.33,3.51-.36,5.28,0,.49-.33,.87-.73,.87h0c.4,0,.73-.38,.73-.87Z"/><path d="M18.11,47.15c-.18-1.44-.31-2.89-.39-4.34,.58-.31,1.18-.6,1.82-.87-.64,.27-1.25,.57-1.82,.87,.08,1.45,.21,2.9,.39,4.34,.06,.51-.15,.97-.51,1.09-.07,.02-.13,.03-.2,.03,.07,0,.13-.01,.2-.03,.36-.13,.58-.59,.51-1.09Z"/><path class="m" d="M19.54,41.94c.64-.27,1.31-.53,2-.76"/><path d="M11.57,49.99c0-2.09,1.7-4.34,4.52-6.21h0c-2.82,1.87-4.52,4.12-4.52,6.21,0,.49,.43,.93,1.18,1.32-.75-.39-1.18-.83-1.18-1.32Z"/><path class="m" d="M12.75,51.31c.25,.13,.54,.25,.86,.37"/><path d="M33.73,45.68c.17-.14,.28-.36,.3-.61,.15-1.79,.41-3.56,.74-5.32h0c-.33,1.76-.6,3.53-.74,5.32-.02,.24-.13,.46-.3,.61-.12,.1-.27,.16-.43,.16h0c.15,0,.3-.05,.43-.16Z"/><path d="M39.01,46.3c.17-.12,.29-.32,.33-.54,.25-1.66,.61-3.29,1.05-4.9h0c-.43,1.61-.8,3.24-1.05,4.9-.03,.22-.15,.42-.33,.54-.12,.08-.25,.13-.39,.13h0c.14,0,.27-.04,.39-.13Z"/><path d="M44.28,47.29c.17-.1,.29-.27,.34-.47,.18-.76,.39-1.5,.61-2.23,.15-.51,.31-1.01,.48-1.51h0c-.17,.5-.33,1-.48,1.51-.22,.74-.43,1.48-.61,2.23-.05,.2-.17,.37-.34,.47-.11,.07-.24,.11-.37,.11h0c.13,0,.26-.04,.37-.11Z"/></g></g></g><g id="c"/><g id="d"/><g id="e"/><g id="f"/><g id="g"/></svg>