<?xml version="1.0" encoding="UTF-8"?><svg xmlns="http://www.w3.org/2000/svg" xmlns:xlink="http://www.w3.org/1999/xlink" viewBox="0 0 73 74"><defs><style>.h{fill:#a79055;}.i{fill:#735026;}.j{clip-path:url(#d);}.k{fill:none;}.l{fill:#eeeccd;}</style><clipPath id="d"><circle class="k" cx="36.48" cy="37.56" r="33.53"/></clipPath></defs><g id="a"/><g id="b"/><g id="c"><g><g class="j"><circle class="h" cx="36.48" cy="37.56" r="33.53"/><polygon class="i" points="65.58 83 33.07 54.61 55.63 24.16 95.7 42.71 65.58 83"/></g><path class="l" d="M59.37,42.46c.19-.08,.38-.15,.59-.21,.3-.07,.37-.2,.42-.31,0-.01,.01-.03,.01-.03,.08,0,.32,.17,.47,.28,.02,.02,.05,.02,.07,0,.02-.01,.03-.04,.03-.07,0-.02-.1-.43-.32-.59h-.02c-.12-.1-.31-.23-.65-.23-.14,0-.25,.02-.35,.05-.19-.38-.63-.48-.97-.41-.28,.06-.5,.3-.75,.59-.05,.06-.11,.13-.17,.19-.3,.33-.67,.37-.67,.37-.01,0-.02,0-.03,.02h-.15c-.39,.03-.79,.05-1.14,.09-.73,.07-1.19,.06-1.29,.06-.03-.05-.07-.09-.1-.13-.02-.03-.05-.06-.06-.08,0,0,.01-.01,.02-.02,.11-.08,.26-.14,.4-.2,.01,0,.02-.01,.03-.03,.02-.03,0-.07-.02-.09-.07-.04-.14-.08-.2-.12-.05-.03-.11-.08-.14-.11,0,0,.02-.01,.03-.02,.03-.02,.07-.03,.1-.04,.07-.03,.15-.05,.22-.07,.01,0,.03-.01,.04-.02,.02-.03,.02-.07-.01-.09-.11-.08-.22-.17-.31-.26,0,0-.02-.02-.02-.03,0-.01,.03-.04,.04-.05,.05-.05,.1-.09,.15-.13,0,0,.02-.02,.02-.03,0-.03,0-.07-.04-.08h0c-.07-.02-.13-.03-.2-.04,.03-.05,.06-.1,.09-.15,0-.02,.03-.04,.04-.05l.12,.02s.09,.01,.15,0c.01,0,.04-.01,.05-.03,.02-.02,.04-.05,.04-.08,0-.05-.02-.06-.03-.08-.03-.08-.07-.16-.11-.24-.08-.15-.18-.3-.31-.43-.14-.13-.3-.19-.44-.28-.29-.16-.57-.35-.81-.58-.22-.22-.3-.57-.21-.86h0c.2-.26,.41-.51,.6-.78,.1-.14,.19-.28,.26-.44,.07-.17,.1-.33,.14-.49,.07-.33,.1-.67,.12-1,.02-.33,.03-.66,.07-.99,.03-.32,.13-.62,.24-.93l.35-.93c.06-.16,.12-.31,.17-.47,.03-.08,.05-.16,.07-.25,.01-.04,.02-.09,.02-.14,0-.04,0-.07,.01-.11,.05-.3,.22-.6,.27-.96,.03-.37-.06-.69-.13-1.02-.09-.3-.08-.63-.01-.93,.03-.15,.09-.3,.17-.41,.04-.05,.09-.1,.15-.12,.07-.02,.14-.04,.22-.05,.31-.04,.63,.03,.95,.09,.32,.07,.64,.14,.97,.18l.76,.35s.01,0,.02,0c.04,0,.07-.02,.07-.06h0c.01-.18,.02-.36,0-.54,0-.09-.02-.18-.05-.28-.01-.05-.03-.09-.06-.14-.02-.02-.03-.05-.06-.07l-.05-.04c-.23-.24-.44-.53-.65-.81l-.31-.43c-.09-.1-.1-.29-.15-.46-.09-.36-.29-.7-.58-.94-.28-.25-.61-.41-.95-.54-.34-.13-.69-.21-1.05-.25-.36-.04-.73-.03-1.09,.06-.36,.08-.7,.23-1,.43-.31,.19-.58,.44-.83,.68-.25,.24-.51,.49-.76,.74-.5,.5-.99,1.01-1.45,1.55-.09,.11-.19,.22-.28,.33-.31,.07-.64-.02-.93-.18-.3-.16-.56-.37-.82-.6-.25-.23-.49-.48-.71-.74-.22-.26-.42-.54-.63-.82-.81-1.12-1.68-2.21-2.69-3.17-.5-.48-1.03-.94-1.61-1.32-.58-.39-1.2-.71-1.84-.98-.64-.27-1.3-.48-1.98-.65-.34-.08-.68-.15-1.02-.2-.17-.03-.35-.05-.52-.06-.18,0-.35-.02-.54,.02-.02,0-.05,.01-.07,.03-.03,.01-.05,.02-.08,.06-.03,.03-.03,.07-.04,.1,0,.03,0,.06,0,.07,0,.04,0,.02,0,.03-.03,0-.06,.01-.1,.01-.16,0-.33-.02-.5-.05-.34-.05-.67-.13-1.02-.19-.68-.14-1.36-.25-2.05-.35-1.37-.2-2.75-.35-4.12-.48-.69-.06-1.38-.13-2.07-.15-.69-.02-1.39,0-2.08,.02-1.36,.05-2.71,.16-4.06,.31-1.17-.23-2.35-.43-3.54-.54-.5-.05-1-.08-1.5-.09-.25,0-.5,0-.76,.03-.13,.01-.25,.03-.38,.05-.13,.03-.25,.06-.38,.14-.03,.02-.06,.05-.08,.1-.02,.05-.01,.12,0,.15,.04,.07,.09,.12,.13,.17,.1,.09,.2,.17,.3,.24,.21,.14,.43,.27,.65,.39,.44,.24,.9,.44,1.38,.61,.48,.17,.98,.24,1.47,.32l1.48,.22c.74,.11,1.48,.21,2.23,.3-.2,0-.39-.01-.59-.02-1.41-.04-2.82-.06-4.23-.01-.71,.03-1.41,.07-2.11,.15-.35,.04-.7,.09-1.05,.17-.17,.04-.35,.08-.52,.15-.04,.02-.08,.04-.13,.06-.02,.01-.04,.03-.06,.05-.01,.02-.02,.03-.03,.06,0,.03,0,.05,.02,.07,.08,.1,.15,.13,.23,.18,.16,.09,.32,.16,.48,.24l.24,.11s.08,.04,.11,.06h.01l.03,.04,.05,.05c.27,.24,.55,.45,.87,.63,.16,.09,.32,.16,.5,.22,.18,.05,.35,.07,.53,.1,.27,.04,.54,.07,.81,.09-.07,.04-.13,.08-.18,.14-.06,.06-.11,.15-.1,.26,.02,.1,.08,.17,.13,.22,.23,.22,.48,.38,.74,.54,.26,.16,.53,.31,.82,.41,.16,.05,.31,.05,.46,.07l.37,.04c-.04,.1-.06,.2-.05,.31,0,.14,.08,.29,.19,.37,.21,.16,.42,.28,.64,.4,.22,.12,.44,.23,.67,.34,.11,.05,.23,.11,.36,.14,.11,.02,.22,.03,.33,.02,.02,.11,.04,.21,.1,.31,.03,.06,.07,.11,.13,.16,.05,.04,.11,.07,.16,.1,.21,.13,.43,.24,.64,.35,.22,.11,.44,.21,.66,.32l.17,.07c.06,.02,.11,.05,.19,.06,.11,0,.21-.01,.31-.03,.02,.12,.04,.24,.08,.36,.03,.07,.05,.15,.13,.21,.07,.05,.13,.08,.19,.12,.25,.14,.5,.27,.75,.41,.26,.13,.5,.26,.78,.38,.28,.08,.55,.06,.82,.04,.02,.14,.05,.28,.09,.42,.02,.08,.05,.16,.08,.24,.03,.08,.09,.16,.15,.22,.25,.22,.53,.38,.82,.53,.14,.08,.29,.15,.44,.2,.15,.06,.33,.09,.49,.09,.24,0,.48-.02,.71-.05-.09,.07-.19,.14-.27,.22-.04,.04-.07,.07-.11,.12-.02,.02-.03,.05-.04,.1,0,.03,0,.05,.01,.06,0,.02,.01,.03,.02,.04,.06,.09,.12,.17,.19,.24,.27,.3,.58,.56,.94,.75,.18,.09,.38,.17,.58,.2,.21,.02,.4,0,.61,0,.38-.02,.75-.07,1.11-.15,0,.27,.02,.53,.06,.8,0,.07,.02,.15,.04,.22,.02,.08,.08,.16,.13,.21,.1,.11,.22,.2,.33,.3,.23,.18,.47,.35,.73,.49,.07,.03,.13,.07,.22,.09,.09,.02,.17,0,.24,0,.12-.03,.23-.09,.33-.16,.02,.06,.04,.12,.07,.18,.04,.08,.1,.17,.19,.23,.1,.05,.2,.06,.29,.07,.07,0,.14,0,.21-.01,0,.11,0,.22,.02,.33,.02,.13,.04,.26,.09,.4,.02,.06,.07,.14,.13,.18,.06,.04,.12,.08,.18,.11,.11,.05,.22,.09,.33,.12,0,.15,.03,.29,.08,.43,.03,.08,.07,.15,.13,.22,.06,.07,.15,.11,.24,.12,.17,.03,.33,.01,.48-.01,.13-.02,.26-.05,.39-.08,.04,.28,.09,.55,.17,.83,.04,.15,.09,.29,.16,.43,.07,.14,.15,.28,.28,.39,.13,.11,.31,.15,.47,.12,.16-.02,.31-.09,.44-.17,.23-.14,.43-.32,.61-.52,.02,.06,.04,.11,.07,.16,.03,.04,.07,.08,.12,.11,.03,.02,.07,.02,.1,.02,.03,.26,.07,.51,.14,.76,.08,.27,.19,.54,.36,.78,.17,.23,.42,.43,.72,.48,.26,.04,.53-.04,.74-.2,.01,.05,.03,.1,.07,.15,.06,.08,.15,.13,.24,.15,.05,.01,.11,.01,.16,0-.06,.04-.11,.07-.17,.11-.58,.37-1.2,.7-1.78,1.08-.3,.18-.59,.37-.88,.56-.14,.1-.29,.2-.43,.31-.02,.01-.04,.03-.05,.05,0,0-.02,.01-.03,.03-.01,.02-.02,.04-.03,.05-.01,.04-.02,.08-.04,.11-.03,.07-.06,.14-.1,.21-.58,.23-1.16,.48-1.71,.77-.14,.07-.28,.16-.41,.25-.13,.1-.25,.22-.34,.36-.18,.28-.29,.58-.35,.91,0,.01,0,.02,0,.03-.07,.03-.13,.07-.2,.1-.52,.27-1.09,.43-1.59,.78-.12,.09-.25,.18-.34,.33-.05,.07-.08,.17-.07,.27,.01,.1,.07,.19,.12,.25,.12,.12,.25,.2,.39,.26,.1,.05,.2,.08,.31,.11-.67,.51-1.32,1.04-1.93,1.62-.16,.15-.32,.31-.46,.49-.15,.19-.21,.45-.16,.69,.05,.25,.25,.45,.47,.53,.22,.09,.46,.09,.69,.07,.45-.06,.87-.24,1.27-.41,.4-.18,.8-.39,1.18-.6,.21-.12,.42-.24,.62-.37-.33,.45-.64,.9-.95,1.37-.17,.26-.34,.52-.5,.79-.16,.28-.25,.58-.32,.89-.13,.62-.17,1.24-.17,1.87,0,.16,0,.31,.02,.47,0,.08,.01,.16,.04,.24,0,0,0,.03,.02,.04,.01,.02,.04,.03,.06,.03,.03,0,.05,0,.07,0,.04,0,.08-.02,.12-.03,.3-.1,.59-.23,.87-.37,.56-.29,1.11-.6,1.58-1.01,.25-.21,.41-.49,.57-.76,.16-.27,.3-.55,.44-.83,.29-.57,.56-1.15,.82-1.73l-.98,2.92c-.05,.16-.11,.32-.16,.49-.03,.19-.03,.35-.03,.53,0,.34,.03,.69,.07,1.03,.04,.34,.08,.68,.15,1.02,.04,.17,.07,.34,.15,.51,.01,.02,.03,.05,.05,.07,.01,.02,.07,.04,.1,.04,.06,0,.11-.02,.15-.04,.09-.04,.16-.08,.23-.13,.29-.19,.55-.42,.81-.65,.25-.23,.5-.47,.73-.73,.11-.13,.24-.27,.29-.45,.05-.17,.09-.33,.13-.5,.08-.33,.16-.67,.23-1,.04-.2,.08-.4,.13-.6l-.06,.37-.25,1.61c-.02,.14-.04,.27-.06,.41,0,.16,.04,.28,.07,.42,.06,.27,.13,.53,.2,.79,.07,.26,.15,.53,.24,.78,.05,.13,.09,.26,.16,.39,.02,.03,.03,.06,.08,.1,.07,.04,.12,0,.16,0,.07-.04,.12-.09,.17-.14,.39-.4,.69-.85,.99-1.31,.07-.12,.15-.23,.21-.35,.07-.13,.1-.27,.13-.4,.07-.26,.13-.53,.19-.8,.06-.28,.11-.56,.17-.83-.02,.4-.03,.8,0,1.21,0,.14,.03,.28,.06,.42,.03,.14,.09,.27,.15,.4,.13,.25,.29,.48,.48,.69,.19,.21,.39,.4,.61,.57,.11,.09,.22,.17,.34,.24,.06,.04,.12,.07,.2,.1,.03,.01,.08,0,.1-.02,.02-.01,.04-.03,.05-.04,.03-.03,.05-.05,.08-.08,.34-.45,.6-.93,.85-1.42,.06-.12,.12-.25,.17-.38,.01-.03,.02-.07,.03-.11,0-.02,0-.04,.01-.06v-.26c0-.28,0-.55-.01-.82-.02-.55-.04-1.1-.08-1.64-.01-.54-.01-1.09,0-1.64l.03-3.29c0-.65,.03-1.29,.08-1.94,.07-.26,.2-.53,.42-.65,.12-.07,.26-.07,.4-.07,.14,0,.29,.02,.43,.04,.58,.07,1.15,.21,1.76,.24,.31,0,.62-.07,.9-.19l.2-.09s.06-.03,.08-.03c.02,0,.04,0,.08,0l.44,.03c.3,.01,.59,.04,.92-.04,.19-.07,.29-.21,.38-.32,.04-.06,.08-.12,.12-.16,.04-.03,.03-.05,.05-.04l.02,.02c.14,.19,.26,.4,.38,.61,.12,.21,.23,.43,.38,.64,.07,.1,.2,.21,.32,.24,.12,.05,.24,.08,.37,.1,.12,.02,.25,.04,.37,.05,.06,0,.13,0,.2,0,.04-.01,.07,0,.13-.06,.04-.05,.03-.11,.01-.15-.05-.08-.08-.15-.11-.23,.34,0,.69,0,1.01-.05,.35-.01,.71,0,1.07,.02h.05s-.01,.04-.03,.05c-.05,.04-.15,.09-.22,.16-.14,.14-.22,.33-.25,.51-.04,.18-.03,.39,.03,.56,.07,.18,.17,.34,.31,.47,.01,.01,.03,.02,.04,.02,.03,0,.06-.03,.07-.06h0v-.41s.06,0,.09-.02c.04-.01,.09-.06,.11-.09,.04-.07,.08-.13,.12-.2,.03-.07,.07-.14,.09-.21,0-.02,.01-.05,.02-.06,0,0,0-.02,.02-.03,.02-.03,.04-.06,.06-.08,.09-.11,.19-.22,.29-.33l.04-.04s.01-.01,.03-.02c.03-.02,.06-.03,.09-.04,.07-.03,.14-.05,.21-.07,.14-.04,.28-.06,.43-.06,.15,0,.31-.02,.46-.07,.03,0,.09-.03,.12-.06,.04-.03,.06-.07,.08-.1,.02-.03,.03-.06,.05-.07l.04,.02c.13,.06,.27,.13,.4,.2,.01,0,.03,0,.05,0,.03-.01,.05-.05,.04-.08h0c-.05-.17-.13-.32-.22-.47,.1-.08,.37-.28,.57-.34,.27-.08,1.07-.42,1.25-.52,.16-.09,.25-.33,.29-.44,.06,0,.17,0,.26,.03,.1,.02,.23,.15,.27,.2,.02,.02,.04,.03,.06,.02,.02,0,.04-.02,.05-.05,0,0,.11-.39-.35-.62-.43-.21-1.02-.02-1.22,.13-.07,.05-.24,.15-.45,.27-.09-.17-.23-.32-.4-.41-.12-.07-.25-.11-.38-.13,.18-.03,.37-.06,.53-.1,.31-.07,.55-.17,.77-.26Zm-5.01,1.53v-.03s-.04-.08-.06-.11c-.07-.16-.15-.31-.22-.47,.17-.01,.57-.05,.94-.11,.39-.07,.69-.04,.79-.02-.03,.09-.16,.3-.33,.42-.22,.17-.35,.35-.4,.53-.3-.01-.58-.04-.79-.07h.02s.05-.06,.06-.1c0-.02,0-.04,0-.06Zm1.87-.09c.02-.06,.04-.12,.05-.17,.03-.14,.05-.21,.2-.24,.24-.05,.82,.04,1,.07,.08,.01,.16,.05,.26,.09,.08,.03,.18,.07,.28,.1-.12,.05-.24,.1-.35,.14-.54,.19-1.02,.24-1.63,.29,.11-.1,.16-.2,.19-.27Z"/></g></g><g id="e"/><g id="f"/><g id="g"/></svg>